<svg xmlns="http://www.w3.org/2000/svg"  viewBox="0 0 100 100" width="100px" height="100px"><path d="M0.002,75v-4h53	c2.208,0,4.001-1.787,4.001-4c0-0.707-0.131-1.44-0.381-2.053L52.466,54.76C51.931,53.44,52.901,52,54.319,52h6.853L41.002,31.827	v28.347l4.515-4.52c1.009-1.013,2.727-0.667,3.267,0.667L53.87,68.8c-0.263,0.133-0.557,0.2-0.868,0.2h-3.371l-3.416-8.387l-5.8,5.8	c-1.256,1.253-3.413,0.36-3.413-1.413V27c0-1.773,2.157-2.667,3.413-1.413l27,27C68.671,53.84,67.778,56,66.002,56h-8.708	l3.033,7.44c0.467,1.147,0.676,2.387,0.676,3.56c0,4.413-3.587,8-8.001,8H0.002z M62.17,71h37.832v4H59.001	C60.374,73.973,61.474,72.587,62.17,71z"/></svg>